<svg
  width="24"
  height="23"
  viewBox="0 0 24 23"
  fill="none"
  xmlns="http://www.w3.org/2000/svg"
>
<path
    d="M17 6.70801H6C4.346 6.70801 3 7.99792 3 9.58301V16.2913C3 17.8764 4.346 19.1663 6 19.1663H17C18.654 19.1663 20 17.8764 20 16.2913V9.58301C20 7.99792 18.654 6.70801 17 6.70801ZM18 16.2913C18 16.8203 17.552 17.2497 17 17.2497H6C5.448 17.2497 5 16.8203 5 16.2913V12.458H18V16.2913ZM18 10.5413H5V9.58301C5 9.05401 5.448 8.62467 6 8.62467H17C17.552 8.62467 18 9.05401 18 9.58301V10.5413Z"
    fill="black"
  />
<path
    d="M14 15.3333H16C16.276 15.3333 16.5 15.1187 16.5 14.8542C16.5 14.5897 16.276 14.375 16 14.375H14C13.724 14.375 13.5 14.5897 13.5 14.8542C13.5 15.1187 13.724 15.3333 14 15.3333Z"
    fill="black"
  />
</svg>
