<svg
  width="20"
  height="18"
  viewBox="0 0 20 18"
  fill="none"
  xmlns="http://www.w3.org/2000/svg"
>
    <path
    d="M9.99991 4.25928C7.17733 4.25928 4.83862 6.29935 4.83862 8.8405C4.83862 11.3817 7.13701 13.4217 9.99991 13.4217C12.8628 13.4217 15.1612 11.3459 15.1612 8.8405C15.1612 6.33515 12.8225 4.25928 9.99991 4.25928ZM9.99991 11.7754C8.1854 11.7754 6.69346 10.4511 6.69346 8.8405C6.69346 7.22992 8.1854 5.90566 9.99991 5.90566C11.8144 5.90566 13.3064 7.22992 13.3064 8.8405C13.3064 10.4511 11.8144 11.7754 9.99991 11.7754Z"
    fill="white"
  />
    <path
    d="M15.363 5.19013C16.0088 5.19013 16.5323 4.72543 16.5323 4.15219C16.5323 3.57896 16.0088 3.11426 15.363 3.11426C14.7171 3.11426 14.1936 3.57896 14.1936 4.15219C14.1936 4.72543 14.7171 5.19013 15.363 5.19013Z"
    fill="white"
  />
    <path
    d="M18.3871 1.46742C17.3387 0.501071 15.8468 0 14.1532 0H5.84677C2.33871 0 0 2.07587 0 5.18967V12.5268C0 14.0658 0.564516 15.3901 1.69355 16.3564C2.78226 17.287 4.23387 17.7523 5.8871 17.7523H14.1129C15.8468 17.7523 17.2984 17.2512 18.3468 16.3564C19.4355 15.4258 20 14.1016 20 12.5626V5.18967C20 3.68646 19.4355 2.39799 18.3871 1.46742ZM18.2258 12.5626C18.2258 13.6721 17.7823 14.5669 17.0565 15.1753C16.3306 15.7838 15.3226 16.1059 14.1129 16.1059H5.8871C4.67742 16.1059 3.66935 15.7838 2.94355 15.1753C2.21774 14.5311 1.85484 13.6363 1.85484 12.5268V5.18967C1.85484 4.11595 2.21774 3.22117 2.94355 2.57694C3.62903 1.9685 4.67742 1.64638 5.8871 1.64638H14.1935C15.4032 1.64638 16.4113 1.9685 17.1371 2.61273C17.8226 3.25697 18.2258 4.15174 18.2258 5.18967V12.5626Z"
    fill="white"
  />
    </svg>
