<svg
  width="19"
  height="23"
  viewBox="0 0 19 23"
  fill="none"
  xmlns="http://www.w3.org/2000/svg"
>
<path
    d="M18.7985 20.8174L14.3908 15.8105H14.3433C15.7019 13.9908 16.3885 11.6449 16.2594 9.26342C16.1303 6.88196 15.1955 4.64945 13.6507 3.03288C12.1058 1.41631 10.0705 0.540927 7.97057 0.589835C5.87059 0.638743 3.8686 1.60816 2.38338 3.29529C0.898162 4.98243 0.0447664 7.25659 0.00171164 9.64206C-0.0413431 12.0275 0.729278 14.3395 2.15238 16.0944C3.57547 17.8492 5.5408 18.9111 7.63725 19.0577C9.7337 19.2043 11.7989 18.4245 13.4007 16.8812C13.4007 16.8812 13.4007 16.9197 13.4007 16.9351L17.8085 21.9421C17.8715 22.0143 17.9465 22.0716 18.0292 22.1107C18.1118 22.1498 18.2004 22.1699 18.2899 22.1699C18.3795 22.1699 18.4681 22.1498 18.5507 22.1107C18.6334 22.0716 18.7084 22.0143 18.7714 21.9421C18.8409 21.8721 18.8971 21.7867 18.9363 21.6912C18.9756 21.5956 18.9972 21.4919 18.9997 21.3864C19.0023 21.281 18.9857 21.1761 18.9511 21.0782C18.9165 20.9803 18.8646 20.8916 18.7985 20.8174V20.8174ZM8.14535 17.5128C6.80417 17.5128 5.49311 17.061 4.37795 16.2146C3.2628 15.3682 2.39364 14.1652 1.8804 12.7576C1.36715 11.3501 1.23286 9.80124 1.49451 8.307C1.75616 6.81276 2.402 5.44021 3.35036 4.36292C4.29872 3.28563 5.50701 2.55199 6.82242 2.25477C8.13783 1.95754 9.50129 2.11009 10.7404 2.69311C11.9795 3.27614 13.0385 4.26345 13.7837 5.53021C14.5288 6.79697 14.9265 8.28627 14.9265 9.80979C14.9265 10.8214 14.7511 11.823 14.4103 12.7576C14.0695 13.6922 13.57 14.5414 12.9403 15.2567C12.3107 15.9719 11.5631 16.5394 10.7404 16.9265C9.91766 17.3136 9.03587 17.5128 8.14535 17.5128V17.5128Z"
    fill="black"
  />
</svg>
