<svg
  width="15"
  height="18"
  viewBox="0 0 15 18"
  fill="none"
  xmlns="http://www.w3.org/2000/svg"
>
    <path
    d="M15 7.27992C13.5255 7.28357 12.0872 6.80741 10.8882 5.91869V12.1169C10.8878 13.2649 10.5489 14.3854 9.91697 15.3285C9.28498 16.2717 8.38999 16.9926 7.35166 17.3949C6.31333 17.7971 5.18116 17.8615 4.10653 17.5795C3.0319 17.2974 2.06604 16.6824 1.33809 15.8165C0.610146 14.9507 0.154814 13.8754 0.0329802 12.7344C-0.0888536 11.5933 0.128618 10.441 0.656317 9.43142C1.18402 8.42184 1.99679 7.60314 2.98596 7.0848C3.97512 6.56645 5.09353 6.37318 6.19164 6.53081V9.6483C5.68915 9.48463 5.14956 9.48956 4.64993 9.66238C4.1503 9.83521 3.71618 10.1671 3.40957 10.6107C3.10296 11.0542 2.93954 11.5867 2.94264 12.1322C2.94574 12.6777 3.11521 13.2082 3.42685 13.648C3.73848 14.0877 4.17634 14.4143 4.6779 14.581C5.17946 14.7477 5.71907 14.7461 6.21967 14.5763C6.72027 14.4065 7.15626 14.0773 7.46538 13.6356C7.7745 13.1939 7.94093 12.6624 7.94092 12.1169V0H10.8882C10.8862 0.25773 10.907 0.515108 10.9505 0.768881C11.0529 1.33539 11.2659 1.87431 11.5763 2.35268C11.8868 2.83104 12.2882 3.2388 12.756 3.551C13.4217 4.00675 14.202 4.24966 15 4.24948V7.27992Z"
    fill="white"
  />
    </svg>
